<svg xmlns="http://www.w3.org/2000/svg" version="1.1" xmlns:xlink="http://www.w3.org/1999/xlink" xmlns:svgjs="http://svgjs.dev/svgjs" width="1000" height="1125" viewBox="0 0 1000 1125"><g transform="matrix(1,0,0,1,1.7053025658242404e-13,0)"><svg viewBox="0 0 320 360" data-background-color="#ffffff" preserveAspectRatio="xMidYMid meet" height="1125" width="1000" xmlns="http://www.w3.org/2000/svg" xmlns:xlink="http://www.w3.org/1999/xlink"><g id="tight-bounds" transform="matrix(1,0,0,1,-5.684341886080802e-14,0)"><svg viewBox="0 0 320 360" height="360" width="320"><g><svg></svg></g><g><svg viewBox="0 0 320 360" height="360" width="320"><g><path xmlns="http://www.w3.org/2000/svg" d="M85.508 32.884c0-1.117 0.558-2.233 1.675-2.233 1.117 0 2.233 0.558 2.234 2.233 0.558 0 1.675 0 2.233-0.558 2.233 0 4.467-0.558 6.141 0 1.675 0.558 2.792 0.558 4.467 1.117 1.675 0.558 2.792 0 3.908-0.559 2.233-0.558 3.908-1.675 6.141-2.233 1.117-0.558 1.675-0.558 2.792-0.558 1.117-0.558 2.233-0.558 3.908-1.117 2.792-0.558 5.583-1.117 7.817-2.233 2.233-1.117 4.467-1.117 6.699-1.675 1.117 0 1.675-0.558 2.792-1.117 0.558 0 0.558-0.558 1.116-1.116 1.117-0.558 1.675-1.117 2.792-0.559 0.558 0.558 1.675 0.558 2.233 0h0.559c3.35 0 6.7-0.558 10.608 0 0.558 0 1.117 0 1.116 0 1.675-1.117 3.908-1.117 6.142-1.116 0.558 0 1.675 0 2.233 0h0.558c2.233 0 4.467 0 6.142 0.558 1.675 0 2.792 0.558 4.466 1.117 1.675 0 2.792 0 4.467 0.558 1.117 0 2.233 0 3.35 0 0.558 0 1.117 0 1.116 0 2.233 0.558 4.467 0.558 6.7 0.558 1.675 0.558 3.35 1.117 5.583 1.117 0.558 0 1.117 0 1.675 0 0.558 0 1.117 0.558 1.675 0.558l0.558 0.559c2.233 0 3.908 1.117 6.142 1.116 0.558 0 1.675 0 2.233 0.559 1.675 1.117 3.908 1.675 6.141 1.675 1.117 0 1.675 0.558 2.234 1.116 1.675 0.558 2.792 1.117 4.466 1.675 1.117 0.558 2.233 0 3.35 0.558 1.675 0.558 3.908 1.117 5.583 2.792 1.117 1.117 2.233 1.117 3.908 2.233 0.558 0 1.117 0.558 1.675 1.117 1.675 1.117 3.35 2.233 5.025 2.791 0.558 0 1.117 0.558 1.675 0.559 1.675 1.117 3.35 2.792 5.583 3.908 1.117 0.558 1.675 1.117 2.792 1.675h0.558c1.675 1.675 3.908 2.792 5.583 4.466 1.675 1.675 2.792 2.792 5.025 3.909 0 0 0 0 0 0.558 0.558 1.117 1.117 1.675 2.233 2.233 1.117 0.558 1.675 1.117 2.234 1.675 1.675 1.117 3.35 2.233 4.466 3.35 0.558 0.558 1.117 1.117 2.233 2.233 0.558 0.558 1.117 1.117 1.675 1.117 2.233 0.558 3.35 2.233 5.025 3.908 1.117 1.117 2.792 2.792 3.908 3.908 0.558 0.558 1.117 1.675 1.675 2.792 1.117 3.35 2.792 6.7 4.467 9.491 0 0 0 0.558 0.558 1.117v0.558c1.117 1.117 1.675 2.792 2.792 3.908 0.558 0.558 0.558 1.117 1.116 1.675 1.117 1.675 1.675 3.908 2.792 5.583 1.675 2.792 2.792 5.583 3.908 8.375v0.558c0.558 1.117 1.117 2.233 1.675 3.908 0 1.117 1.117 2.233 1.675 3.909 0.558 2.792 2.233 5.583 2.791 8.933 0 0.558 0.558 1.117 0.559 2.233 0.558 1.675 1.117 3.35 1.675 5.025 0 0.558 0.558 1.117 1.116 1.675 1.117 1.117 1.117 2.233 1.117 3.35-0.558 2.233 0 4.467 0.558 6.699 0 0.558 0 1.117 0 2.234 0.558 2.233 1.117 5.025 1.117 7.258 0 0.558 0 1.675 0 2.233 0 1.675 0.558 3.35 1.675 5.025 0 0.558 0.558 0.558 0.558 0.558 0.558 0.558 1.117 1.675 1.675 2.233 0.558 0.558 0.558 0.558 1.117 1.117 1.117 1.117 1.675 2.233 1.675 3.908 0 0.558-0.558 1.675-0.559 2.233 0 0.558 0 1.675 0.559 2.234 0.558 0.558 0.558 1.117 0.558 1.675 0 0.558-0.558 1.117-1.117 1.116v0c-0.558 1.675-2.792 2.233-3.35 3.908-0.558 2.233-1.117 4.467-1.674 6.7-0.558 1.675-0.558 2.792-0.559 4.467 0 1.675-0.558 2.792-0.558 4.466-0.558 2.233-1.117 4.467-1.675 6.7 0 1.117-0.558 2.233-0.558 3.35 0.558 0.558 1.117 1.117 1.675 1.116 1.117 1.117 2.233 2.233 3.349 3.35 0.558 0.558 0.558 1.117 0 1.117-0.558 0.558-1.117 0.558-1.674 0.558-0.558-0.558-1.675-1.117-2.234-1.116-0.558-0.558-1.675-1.117-2.791-0.559 0 1.117-0.558 2.233-0.559 2.792-0.558 1.117-1.117 2.792-1.116 3.908-0.558 2.233-1.675 3.908-2.233 6.142-1.117 2.792-2.233 5.025-3.35 7.258-0.558 1.117-1.117 2.233-1.675 3.35v0c0 1.675-1.675 3.35-2.234 5.024-1.117 2.233-2.233 4.467-3.349 7.258-0.558 1.117-1.117 2.233-1.675 2.792-1.117 2.792-2.233 5.025-3.909 7.258-1.117 1.675-2.233 2.792-3.349 3.35-1.117 1.117-2.233 2.233-3.35 3.35-0.558 0.558-1.117 1.117-1.675 1.675-0.558 0.558-0.558 0.558-1.117 1.116-1.117 1.675-2.792 2.792-3.908 4.467-1.117 1.117-1.675 2.233-3.35 3.35-1.117 1.117-2.233 2.792-3.908 3.35-0.558 0.558-1.117 1.675-1.675 2.233-0.558 0.558-1.117 1.675-1.675 2.233 0 1.117 0.558 2.233 0.558 2.792 0 1.675-1.675 2.233-2.791 1.116-1.675-1.117-1.675-1.117-3.35 0-1.675 1.117-3.35 2.792-5.583 3.35-0.558 0-0.558 0.558-1.117 0.559-1.117 0.558-1.675 1.675-2.792 2.233-1.117 1.117-2.792 1.675-3.908 2.791-0.558 0.558-1.117 0.558-1.675 1.117-1.675 1.117-3.35 1.675-5.024 3.35-0.558 0.558-1.117 0.558-1.675 1.117 0 0.558 0 0.558 0 1.116 0 1.117-1.117 2.233-2.792 1.675-1.675-0.558-2.792 0-4.466 0-1.675 0.558-3.35 1.675-5.025 2.233-0.558 0-1.117 0.558-1.675 1.117-1.675 1.117-3.35 1.675-5.025 2.233-1.117 0-2.233 1.117-3.35 1.117-0.558 0-1.117 0.558-1.675 0.558h-0.558c-2.233 1.675-4.467 2.792-6.7 4.467-0.558 0-0.558 0.558-1.117 1.116-0.558 1.117-1.117 1.675-2.233 1.675-2.792 0-3.908 2.233-3.35 4.467 0 0.558 0.558 1.117 0.559 1.675 0.558 1.117 0 2.233-0.559 2.791-0.558 0.558-2.233 0.558-2.791-0.558-1.117-1.117-1.675-2.233-2.234-3.908-0.558-1.117-1.675-2.233-2.791-2.792-1.117-0.558-2.233-0.558-3.35 0-0.558 0-0.558 0.558-1.117 0.558-1.117 1.117-2.792 1.675-4.466 1.117-0.558 0-1.675 0-1.675 0.558-0.558 0.558-0.558 1.675 0 2.234 1.117 1.117 0.558 2.233 0.558 3.908 0 2.233-1.675 3.35-3.908 2.233-0.558-0.558-1.117-0.558-1.675-1.117-0.558 0-0.558-0.558-0.558-1.116-0.558-0.558-0.558-1.675-1.117-2.792-1.117 0.558-2.233 0.558-3.35 1.117-0.558 0-1.117 0.558-1.675 0.558-1.675 0-2.233 0-2.791-1.675-0.558-1.675-1.675-1.675-2.792-2.233-2.233-0.558-5.025-0.558-7.258-1.675h-0.558c-2.233-1.675-4.467-1.675-7.258-1.675-1.675 0-3.35 0.558-5.025 0.558-1.675 0-2.792 0.558-3.908 1.675-0.558 0.558-1.117 1.117-1.675 1.117-0.558-0.558-0.558-1.117-1.117-1.675v-0.558c0-0.558-0.558-1.117-1.116-0.559-1.117 0.558-2.233-0.558-3.35-1.116-0.558-0.558-1.675-1.675-1.675-2.792-0.558-0.558-1.117-1.117-1.675-1.116-1.117 0-2.792-0.558-3.908-0.559-0.558 0-1.117 0-1.117-0.558-0.558-0.558-1.117-0.558-2.233-0.558-0.558 0-0.558-0.558-1.117-0.559 1.117 1.117 1.675 2.233 2.233 3.35 0 0.558 0.558 0.558 0.559 1.117 0.558 1.117 0 1.675-1.675 1.675-1.117 0-1.117 0-1.675 0.558 0 1.117 0 1.675 0 2.792 0 0.558 0 1.117-1.117 1.675 0 0-0.558 0-0.558 0.558-0.558 0.558-0.558 1.117 0 1.675 1.675 1.117 2.792 1.675 4.466 2.233 1.675 0 1.675 1.117 2.234 2.233 0.558 1.117 0 1.675-0.559 2.792-1.117 1.117-2.233 2.233-3.35 3.35-1.675 0.558-2.792 2.233-4.466 2.233-1.117 0-2.233-0.558-2.792-1.675-0.558-2.792-0.558-5.025 0.559-7.816 0-0.558 0.558-1.117 0-1.675-5.025 0-5.025-1.117-5.025-1.675 0-1.117 0.558-1.675 0.558-2.792 0.558-1.117 0-1.675-1.675-2.233-0.558 0-1.117 0-1.675 0-0.558 0-0.558-0.558-1.675-0.558 1.117-0.558 1.675-0.558 2.792-1.117-0.558-2.233-1.117-3.908-2.792-5.025-0.558-0.558-1.117-1.117-1.116-2.233 0-1.675-1.117-2.792-1.675-3.908-1.117-1.675-3.35-2.233-5.025-2.233-1.675-0.558-2.792-0.558-4.467-1.117-1.675-0.558-3.35-2.233-5.024-2.792-0.558-0.558-1.117-1.117-2.234-1.674-2.233-1.117-3.908-2.792-5.583-4.467-1.117-0.558-1.675-1.675-2.791-2.233-1.117-1.117-1.675-2.233-2.792-2.792-1.117-1.117-2.233-2.233-3.908-3.35-1.675-1.117-2.792-2.792-4.467-4.466-1.117-1.675-2.792-2.792-4.466-3.908-0.558 0-1.117 0-1.675 0-0.558 0-1.117 0.558-1.675 0.558-1.675 0.558-2.792 1.675-4.467 2.233 0.558-0.558 0.558-0.558 0-1.675-0.558-0.558-1.117-1.117-1.674-1.116-1.117 0-2.233 0-3.35 0-2.233 0-4.467 0.558-6.7 0.558-1.675 0-3.908 0.558-5.583 1.117 0.558 1.117 0.558 1.675 1.116 2.791-1.117 0.558-2.233 0.558-3.35 0.558-0.558 0-1.675 0.558-2.233 1.117-0.558 0-0.558 0.558-1.116 0-1.117-0.558-2.233 0-3.35 0.558h-0.559c0 0 0-0.558 0.559-0.558 0.558-0.558 1.117-1.117 1.675-1.675 0.558-0.558 1.117-0.558 2.233-1.117-0.558-0.558-0.558-1.117-0.558-1.116-0.558-0.558-1.117-0.558-1.675 0-0.558 0.558-1.117 1.117-1.675 1.675-0.558 0.558-1.117 0.558-1.675 0-0.558-0.558-0.558-1.117 0-1.675 0-0.558 0.558-1.117 1.116-1.675 0.558-0.558 0.558-1.117 1.117-1.675-1.117-1.117-1.675-2.233-2.792-2.792-1.675-1.117-3.35-2.792-4.466-4.466-1.117-2.233-2.792-3.908-5.025-5.025-0.558-0.558-1.117-1.117-1.675-1.675-0.558-0.558-0.558-0.558-1.116-1.117-1.675 0.558-2.792 1.675-4.467 2.234-0.558 0-0.558 0.558-1.117 1.116-0.558 1.117-1.675 1.117-2.791 1.117-0.558 0-1.117-0.558-0.558-1.117 0.558-1.117 1.117-2.233 2.791-1.675 0 0 0.558 0 0.558-0.558 1.117-1.117 2.233-2.792 3.909-3.908-0.558-1.675-1.675-2.792-2.234-3.908-0.558-0.558-0.558-1.117-0.558-2.234 0-0.558 0-0.558-0.558-1.116 0 0-0.558 0-1.117 0.558-0.558 0.558-1.675 1.117-2.791 0 0-0.558 0-1.117 0.558-1.675l0.558-0.558c1.675-0.558 1.675-2.233 1.675-3.908v-0.559c-0.558-1.117-0.558-1.675 0.558-2.791 1.675-1.117 3.35-3.35 3.909-5.025 0.558-1.117 1.675-1.675 2.791-2.792 1.117-1.117 2.233-2.233 2.792-3.908h0.558c2.233 0.558 2.792-1.117 3.908-2.791 0-0.558 0-1.117 0.559-1.117 1.117-1.117 1.117-2.233 0.558-3.908 0-0.558-0.558-1.675-0.558-2.233 0-0.558 0-0.558-0.559-1.117-1.675-1.117-1.675-2.233 0-3.35 1.117-0.558 1.117-1.675 1.675-2.233 0.558-1.117 0.558-2.233 0.559-3.908-0.558-1.675-0.558-3.908-1.117-5.583-0.558-2.233-1.117-5.025-1.675-7.259 0-0.558 0-0.558 0-1.116 0-1.675 0-2.792-0.558-4.467-0.558-0.558-0.558-1.675-0.559-2.233-0.558-1.675-1.117-2.792-2.791-3.35-1.675-1.117-3.908-1.675-5.583-2.791-0.558-0.558-1.117 0-1.675 0.558-0.558 1.117-1.675 2.233-2.234 3.35-0.558 0.558-1.117 1.675-1.675 2.791-1.117 1.117-3.35 2.233-5.024 0.559-0.558-1.117-1.117-1.675 0-2.792 1.117-1.675 2.233-3.35 3.908-4.466 0.558-0.558 1.117-1.675 1.675-2.234 0.558-1.117 0.558-2.233 0.558-3.35-0.558-2.233-1.117-4.467-1.117-7.258 0-2.792 0-5.025 0.559-7.816 0.558-1.117 0.558-2.792 1.116-3.908 0-0.558 0.558-1.675 1.117-2.233 1.117-1.117 2.233-2.233 2.792-3.909 0.558-1.675 1.675-3.35 1.675-5.024 0-0.558 0.558-1.117 0.558-1.675 0-0.558 0.558-1.675 0.558-2.234-0.558-1.675 0-2.792 0.558-3.908 0.558-1.117 1.117-2.792 1.675-3.908 1.117-2.233 1.117-5.025 3.35-7.258 0.558-1.117 1.117-2.233 1.675-3.35 0.558-2.233 1.675-3.908 2.792-5.583 0.558-0.558 0.558-0.558 0.558-1.117 0.558-1.675 1.675-3.35 2.792-5.025 1.117-1.675 1.117-3.35 1.675-5.024 0-0.558 0-1.117 0.558-1.675 1.675-1.675 1.117-3.908 0.558-6.142-1.117-2.792-1.675-5.583-1.116-8.374 0-0.558 0-1.117 0.558-1.117 0.558-1.117 0.558-1.675 1.117-2.792v-0.558c1.117-1.117 2.233-2.792 3.908-3.35 2.233-1.117 4.467-1.675 7.258-2.233 2.233 0 4.467-1.117 6.141-3.35 0-0.558 0.558-0.558 1.117-1.117l0.558-0.558c0.558-1.117 1.117-1.675 1.675-2.233 1.117-1.117 2.233-2.792 3.35-3.908 1.117-1.117 2.233-2.792 3.908-4.467l0.559-0.558c1.117-1.117 2.233-2.233 3.349-2.792 1.117-1.117 2.233-2.233 3.35-3.35 1.117-1.117 1.675-2.233 2.792-3.35 1.117-0.558 2.233-1.675 3.35-2.791 1.117-1.117 2.233-2.233 2.791-2.792 1.117-1.117 2.792-2.233 3.909-2.791 1.117-0.558 2.233-1.117 2.791-2.792 0.558-1.675 1.117-2.792 1.675-4.466 0-1.117 0.558-2.233 1.117-3.35 0.558 0 1.117 0 2.233-0.558-0.558-0.558-1.117-0.558-1.117-1.117 0-0.558 0.558-1.117 0.559-1.117 0-0.558 0.558-1.117 0.558-1.675 0 0 0.558 0 0.558-0.558 0 0 0.558 0 0.559-0.558-1.117 0.558-1.675 0-2.234-0.559 0.558 0.558 1.117 0.558 2.234 1.117 0 0 0.558 0 0.558-0.558 0-0.558 0-1.117 0-1.117 0 0-0.558 0-1.117 0-0.558 0-1.117 0.558-1.675 0.558zM182.097 295.292c0-0.558-0.558-0.558-0.559-1.117-0.558-1.117 0-1.675 0.559-2.233 0.558-0.558 1.117-0.558 2.233-0.558 1.117 0.558 1.675 1.117 1.675 2.233 0 0.558 0 1.675 0 2.233 0.558 2.233 0.558 2.233 2.791 2.233 1.117 0 2.233 0 3.35 0 2.233-0.558 4.467-1.675 6.7-2.233 2.233-0.558 4.467-1.117 6.7-1.675 0.558 0 1.117 0 2.233 0 2.233 0.558 3.908 0 5.583-1.117 0.558-0.558 1.675-0.558 2.233-1.116 1.117-0.558 2.233-0.558 3.35-1.117 2.792-1.675 5.583-2.792 7.817-4.466 1.675-1.117 3.35-2.233 5.024-3.35 1.675-1.117 3.35-2.233 5.025-3.35 1.117-0.558 2.792-1.675 3.908-2.792 2.233-1.675 3.908-3.35 6.142-4.466 1.117-0.558 1.675-1.117 2.233-1.675 1.117-0.558 1.675-1.675 2.792-2.233 0.558-0.558 1.117-1.117 2.233-1.675 0.558-0.558 0.558-0.558 0.558-1.117 1.675-1.117 3.35-3.35 4.467-5.025 1.117-1.117 2.233-2.233 3.35-3.908 1.675-1.675 2.792-3.908 4.466-6.141 1.117-1.117 2.233-2.792 2.792-3.909 1.117-2.233 2.233-4.467 3.908-6.141v-0.558c1.117-2.233 2.233-4.467 3.35-6.7 1.675-2.792 2.792-6.141 4.466-8.933 0.558-1.117 1.117-2.233 1.117-3.35 1.117-2.233 1.675-4.467 2.233-6.7 0-0.558 0-0.558 0.559-1.116 1.675-3.35 2.792-6.7 3.349-10.608 0.558-2.233 1.117-4.467 1.675-6.7 1.117-3.35 1.117-6.141 1.675-9.491 0.558-2.233 0.558-5.025 0.559-7.258 0.558-3.35 0.558-7.258 0-10.608 0-2.792-0.558-6.141-0.559-8.933 0-2.792-0.558-5.025-1.116-7.817-0.558-2.792-1.117-5.025-1.675-7.816-1.117-2.233-1.675-4.467-2.234-7.258-0.558-2.233-1.675-3.908-1.674-6.142 0-1.675-0.558-3.35-2.234-3.908-1.675-0.558-2.792-1.117-4.466-2.233-3.35-2.233-5.025-5.025-4.467-8.375 0-1.675 0.558-3.908 1.117-5.583 0.558-1.675 1.117-3.35 0-4.467-0.558-1.675-1.675-2.792-2.233-3.908-1.117-1.675-1.675-2.792-2.792-3.908-1.117-2.233-2.233-4.467-3.908-6.141-2.233-2.792-3.908-5.583-6.7-7.817l-0.558-0.558c-1.675-2.233-3.35-4.467-5.583-6.142-1.117-1.117-2.233-2.233-3.35-2.791-0.558-0.558-1.117-1.117-2.233-1.675-1.675-1.117-3.35-1.675-4.467-2.792-1.675-1.675-3.908-2.792-5.583-3.908 0 0-0.558 0-0.558-0.558-2.233-1.117-3.908-1.675-6.142-2.792-2.233-1.117-4.467-1.675-6.7-1.675-0.558 0-0.558 0-1.116 0-0.558-0.558-1.675-0.558-2.233-0.558-0.558 0-0.558 0-1.117 0-1.117-0.558-2.792 0-3.908 0-2.233 0.558-4.467 0.558-6.7-0.558-2.792-1.117-5.025-2.233-7.258-3.35-1.675-1.117-2.792-2.233-4.467-3.35-3.35-2.792-6.7-6.141-10.608-8.933 0.558-2.792-0.558-3.35-2.791-3.35-1.117 0-2.233 0.558-3.35 1.117-0.558 0.558-0.558 0.558-1.117 1.116-1.675 1.117-2.792 2.792-4.466 3.909-2.792 1.675-3.908 1.117-6.142 0-0.558-0.558-1.117-1.117-1.675-1.675-1.117-1.117-2.233-2.792-2.791-3.909-1.117-2.233-3.35-2.233-5.583-2.233-1.117 0-2.792 0.558-3.908 0.558-2.233 0-4.467 1.117-5.584 2.792-1.117 1.675-2.233 3.35-3.908 5.025-0.558 0.558-1.675 1.117-2.233 2.233-1.117 1.117-2.233 1.117-3.35 0-0.558-0.558-1.117-0.558-1.675-1.117-0.558 0.558-1.117 1.117-1.117 1.675-0.558 1.117-1.117 2.233-1.674 3.909-0.558 1.675-1.675 3.35-2.792 4.466-0.558 0.558-0.558 0.558-1.117 1.117-0.558 1.117-2.233 1.675-3.35 1.675-1.117 1.117-2.233 2.792-2.791 3.908-0.558 1.117-1.117 2.233-1.675 3.908-0.558 0.558-0.558 1.675-1.117 2.233-0.558 1.117-0.558 1.675-0.558 2.792 0.558 1.675-0.558 2.233-2.233 2.791-1.117 0-1.117 0-1.675 1.117 0 1.675 0.558 2.792 1.116 4.467 0.558 0.558 1.117 1.675 1.117 2.233 0 1.117 0.558 1.675 1.675 2.233 0.558 0.558 1.117 1.117 1.675 1.117 0.558 0 0.558 0.558 1.117 0.558 0.558 0.558 1.117 0 1.116-0.558 0.558-1.675 1.117-3.35 1.117-5.025 0.558-2.233 0.558-3.908 1.116-6.142 0.558-1.117 1.117-1.675 1.675-2.233 0 0 0.558 0 1.117 0v0.559c-0.558 2.792-1.675 6.141-2.233 8.933-0.558 1.117-0.558 2.233-1.117 3.349 0 0.558-0.558 1.117-1.116 1.117-1.117 0.558-2.233 1.117-3.35 1.117-0.558 0-1.117 0-1.675 0-1.117-0.558-2.233-1.675-3.35-2.234-0.558-0.558-1.117-1.117-1.675-1.674-0.558-1.117-1.117-2.233-1.675-3.35-0.558-1.117-1.117-1.675-2.233-2.234-0.558-0.558-1.117-0.558-1.675-1.116-1.117-1.117-2.233-1.675-3.908-1.675-0.558 0-1.675 0-2.234 0-0.558 0-1.675 0.558-2.233 1.116-1.117 0.558-1.675 0.558-2.791 0-2.792-1.117-5.583-0.558-8.375 0.559-1.117 0.558-2.233 1.117-3.35 1.116-2.792 0-5.025 0-7.816 0-2.792 0-5.025-0.558-7.817-1.116-1.117 0-2.233 0-3.35 0-2.233 0.558-2.792 2.233-2.233 4.466 0.558 2.233 1.117 5.025 1.117 7.258 0 1.675 0 3.35 0 5.025 0 1.117 0 1.675 0 2.792 0 1.675-0.558 3.35-0.559 5.025-0.558 3.35-2.233 6.141-4.466 8.374-1.675 1.675-3.908 3.35-6.142 3.908-1.117 0.558-2.233 1.117-3.908 1.675-2.792 1.117-5.025 3.35-6.7 6.142-0.558 1.117-1.117 2.233-1.674 3.35-1.117 1.675-1.675 2.792-2.792 4.466-0.558 1.117-1.675 2.233-2.233 3.35-0.558 1.117-1.675 1.675-1.675 2.792-1.117 2.233-1.675 4.467-2.792 6.699-0.558 1.117-0.558 2.792-1.116 3.909-1.117 2.233-1.117 4.467-1.117 7.258 0 0.558 0 1.117 0 2.233 0 2.792-0.558 6.141-0.558 8.933 0 2.792 0 5.583 0.558 8.375 0 1.117 0 2.792 0 3.908 0 2.233 0.558 5.025 0.558 7.258 0 2.233 0 5.025 1.117 7.258v0.558c0.558 2.233 0.558 4.467 1.116 6.7 0 0.558 0 1.117 0.559 1.675 1.117 3.35 1.675 6.141 2.791 9.491 0.558 2.233 1.675 4.467 2.234 6.7 0.558 2.233 2.792 4.467 3.349 7.258v0c1.675 3.35 3.35 6.7 5.584 10.05 0.558 1.117 1.675 2.233 2.233 3.35 1.117 1.675 1.675 3.35 2.791 4.466 0.558 1.117 1.675 2.233 2.234 2.792 0.558 1.117 1.117 2.233 2.233 3.35 1.117 1.117 2.233 2.792 3.35 3.908 1.675 2.792 3.908 5.025 6.141 6.7 1.117 1.117 2.233 1.675 3.35 2.791 0.558 0.558 1.117 0.558 1.117 1.117 0.558 0.558 1.117 1.117 2.233 1.675 4.467 2.233 7.816 5.583 11.725 8.933 1.675 1.675 3.35 3.35 5.583 4.466 2.233 1.675 3.908 3.35 6.7 3.908 0 0 0.558 0 0.558 0.559 1.117 1.117 2.792 1.675 3.908 2.233 2.233 1.117 5.025 2.233 7.258 3.35 0.558 0.558 1.675 0.558 2.233 1.117 1.675 0.558 3.35 1.117 5.025 1.674 1.675 0.558 2.792 1.117 4.467 1.117h0.558c1.117 0.558 1.675 0.558 2.792 0 0.558 0 1.117 0 1.116 0.558 0 0.558 0.558 0.558 1.117 0.559 0.558 0 1.117 0 2.233 0 0.558-0.558 0.558-1.117 1.117-2.234 0.558 0.558 1.117 0.558 1.116 0.559 0.558 1.117 1.675 1.117 2.792 1.116h0.558c1.117 0 1.675 0 2.233-0.558 0-0.558 1.117-0.558 1.675-0.558 1.675 0.558 3.35 0.558 5.025 1.116 1.117 0.558 2.792 0.558 3.35-0.558 0.558-0.558 1.117-1.117 2.233-0.558 1.117 0.558 1.675 0.558 2.792 0 0.558 0 1.117 0 1.117 0 1.675 0.558 2.792 0.558 4.466 1.116 2.233 0.558 2.233 0.558 3.908-1.116 0.558-0.558 1.675-0.558 2.233 0 0.558 1.117 0.558 1.675 0.559 2.791 0.558 0 0.558 0 1.116-0.558 0-1.117 0.558-1.117 1.675-1.675 0.558 0.558 0.558 0.558 1.117 0.558 1.117 1.117 1.675 1.117 2.233-0.558 0-0.558 0-1.117 0.559-1.116 0.558 0 1.117 0.558 1.116 0.558 0.558 1.117 1.675 1.675 2.233 2.791 1.117 1.117 2.792 1.117 3.35 0 0.558-0.558 1.117-0.558 1.675-0.558 0-0.558 0-1.117 0-1.675 1.675 1.117 1.117 1.117 0.559 1.117zM89.417 34.559c1.675 0.558 2.792 0.558 3.349-0.558-1.117 0.558-2.233-0.558-3.349 0.558z" fill="#f6673d" fill-rule="nonzero" stroke="none" stroke-width="1" stroke-linecap="butt" stroke-linejoin="miter" stroke-miterlimit="10" stroke-dasharray="" stroke-dashoffset="0" font-family="none" font-weight="none" font-size="none" text-anchor="none" style="mix-blend-mode: normal" data-fill-palette-color="tertiary"></path></g><g transform="matrix(1,0,0,1,64,90)"><svg viewBox="0 0 192 180" height="180" width="192"><g><svg viewBox="0 0 192 180" height="180" width="192"><g><svg viewBox="0 0 192 180" height="180" width="192"><g><svg viewBox="0 0 192 180" height="180" width="192"><g><svg viewBox="0 0 192 180" height="180" width="192"><g transform="matrix(1,0,0,1,53.57359312880714,49.429748429421835)"><svg viewBox="0 0 84.85281374238572 81.14050314115633" height="81.14050314115633" width="84.85281374238572"><g><circle r="40" cx="42.42640687119286" cy="40.570251570578165" fill="#ffffff" data-fill-palette-color="accent"></circle><svg xmlns="http://www.w3.org/2000/svg" xmlns:xlink="http://www.w3.org/1999/xlink" version="1.1" x="12.727922061357857" y="12.727922061357857" viewBox="4.543999671936035 4.208000183105469 19.332000732421875 23.583999633789062" enable-background="new 0 0 32 32" xml:space="preserve" height="55.68465901844062" width="59.39696961967" class="icon-o-0" data-fill-palette-color="quaternary" id="o-0"><path d="M10.96 8.042v6.041 9.862c-0.677-0.45-1.636-0.736-2.708-0.736-2.048 0-3.708 1.025-3.708 2.292 0 1.265 1.66 2.291 3.708 2.291s3.708-1.026 3.708-2.291V13.786l10.916-3.24v9.565c-0.678-0.45-1.635-0.736-2.709-0.736-2.047 0-3.707 1.025-3.707 2.292 0 1.265 1.66 2.291 3.707 2.291 2.049 0 3.709-1.026 3.709-2.291V10.249 4.208L10.96 8.042z" fill="#e8772e" data-fill-palette-color="quaternary"></path></svg></g></svg></g><path d="M34.186 130.517L19.351 136.456 18.177 133.525 27.754 129.691 16.59 128.157C16.304 128.127 16.057 128.021 15.847 127.839 15.637 127.656 15.48 127.435 15.376 127.174V127.174C15.274 126.92 15.238 126.661 15.269 126.396 15.298 126.126 15.405 125.881 15.591 125.663V125.663L22.604 116.829 13.028 120.664 11.862 117.751 26.696 111.811C27.031 111.677 27.368 111.657 27.708 111.751 28.049 111.845 28.33 112.035 28.552 112.32V112.32C28.651 112.461 28.726 112.611 28.775 112.771 28.825 112.931 28.852 113.097 28.856 113.268 28.857 113.433 28.833 113.597 28.783 113.761 28.725 113.921 28.641 114.07 28.53 114.208V114.208L19.657 125.46 33.844 127.479C34.199 127.538 34.496 127.696 34.736 127.953 34.981 128.208 35.13 128.515 35.181 128.876V128.876C35.212 129.224 35.138 129.552 34.96 129.861 34.779 130.164 34.521 130.383 34.186 130.517ZM47.836 144.958L35.618 154.862C35.441 155.005 35.252 155.107 35.051 155.166 34.85 155.226 34.649 155.243 34.447 155.217 34.25 155.197 34.059 155.136 33.875 155.036 33.69 154.936 33.529 154.8 33.39 154.629V154.629L28.94 149.139C28.519 148.62 28.149 148.047 27.829 147.419 27.509 146.801 27.267 146.146 27.101 145.454 26.931 144.767 26.851 144.057 26.861 143.327 26.865 142.6 26.982 141.869 27.211 141.133 27.445 140.401 27.805 139.684 28.292 138.979 28.784 138.27 29.425 137.596 30.214 136.957V136.957L36.935 131.509 38.911 133.946 32.19 139.394C31.499 139.954 30.996 140.521 30.679 141.096 30.357 141.675 30.156 142.239 30.075 142.786 29.993 143.343 30.002 143.869 30.102 144.364 30.206 144.865 30.343 145.309 30.511 145.697 30.681 146.076 30.851 146.398 31.023 146.663 31.196 146.919 31.314 147.085 31.377 147.163V147.163L34.849 151.446 45.861 142.521ZM56.709 165.971V165.971C56.357 166.475 55.971 166.886 55.552 167.205 55.143 167.522 54.724 167.759 54.296 167.916 53.869 168.082 53.437 168.176 52.999 168.195 52.565 168.21 52.148 168.182 51.747 168.114 51.344 168.036 50.964 167.921 50.606 167.768 50.248 167.616 49.929 167.442 49.65 167.246V167.246L39.729 160.303 41.528 157.732 51.449 164.676C51.947 165.024 52.435 165.149 52.912 165.051 53.383 164.948 53.789 164.653 54.131 164.166V164.166C54.299 163.925 54.417 163.681 54.484 163.434 54.55 163.187 54.565 162.945 54.528 162.707 54.5 162.467 54.414 162.24 54.271 162.025 54.137 161.809 53.949 161.616 53.708 161.448V161.448L47.795 157.309C47.379 157.018 46.981 156.63 46.603 156.145 46.225 155.66 45.945 155.109 45.764 154.493 45.584 153.877 45.544 153.205 45.646 152.477 45.748 151.749 46.069 150.999 46.609 150.227V150.227C47.146 149.46 47.737 148.907 48.382 148.568 49.028 148.228 49.672 148.035 50.317 147.989 50.961 147.942 51.576 148.013 52.161 148.203 52.747 148.392 53.247 148.633 53.664 148.924V148.924L62.419 155.051 60.619 157.622 51.864 151.494C51.377 151.153 50.893 151.035 50.412 151.139 49.932 151.243 49.521 151.539 49.18 152.026V152.026C48.831 152.524 48.694 153.012 48.768 153.488 48.839 153.97 49.118 154.381 49.605 154.722V154.722L55.519 158.861 55.543 158.878C55.813 159.075 56.081 159.316 56.347 159.6 56.604 159.886 56.834 160.21 57.037 160.572 57.244 160.929 57.411 161.315 57.537 161.729 57.659 162.149 57.72 162.587 57.718 163.043 57.714 163.505 57.634 163.979 57.48 164.467 57.323 164.961 57.066 165.462 56.709 165.971ZM69.145 158.274L61.83 173.965 58.986 172.639 66.301 156.948ZM84.175 176.959L83.401 180 72.433 177.207C72.148 177.134 71.852 177.025 71.545 176.877 71.238 176.73 70.947 176.546 70.672 176.324 70.391 176.101 70.133 175.842 69.897 175.547 69.669 175.255 69.481 174.921 69.335 174.546 69.196 174.172 69.111 173.761 69.081 173.312 69.058 172.858 69.114 172.369 69.247 171.844V171.844L71.345 163.606C71.416 163.328 71.525 163.035 71.673 162.727 71.82 162.42 72.005 162.126 72.228 161.845 72.45 161.57 72.711 161.316 73.012 161.082 73.313 160.849 73.647 160.661 74.014 160.52 74.387 160.381 74.799 160.296 75.248 160.266 75.695 160.242 76.181 160.296 76.706 160.43V160.43L87.673 163.223 86.899 166.264 75.931 163.471C75.53 163.368 75.199 163.394 74.939 163.549 74.671 163.708 74.484 163.995 74.379 164.41V164.41L72.288 172.618C72.187 173.013 72.217 173.345 72.376 173.613 72.535 173.881 72.813 174.066 73.208 174.166V174.166ZM111.842 161.267L115.304 160.764 109.59 178.471C109.501 178.74 109.342 178.973 109.114 179.168 108.885 179.356 108.621 179.472 108.324 179.516V179.516C108.026 179.559 107.741 179.523 107.467 179.407 107.193 179.285 106.971 179.108 106.802 178.876V178.876L96.296 163.526 99.768 163.021 107.593 174.486ZM132.226 161.47L133.406 164.399 124.211 168.106 123.031 165.178ZM136.19 167.525L137.364 170.435 126.858 174.67C126.455 174.833 125.986 174.939 125.451 174.989 124.916 175.039 124.38 174.985 123.84 174.827 123.305 174.661 122.797 174.376 122.317 173.972 121.835 173.561 121.441 172.977 121.136 172.221V172.221L116.904 161.724C116.822 161.52 116.781 161.313 116.783 161.103 116.785 160.893 116.825 160.697 116.903 160.514 116.978 160.326 117.09 160.158 117.24 160.011 117.39 159.864 117.567 159.749 117.772 159.667V159.667L130.89 154.378 132.064 157.288 120.395 161.992 124.046 171.048C124.201 171.432 124.418 171.684 124.696 171.802 124.983 171.924 125.319 171.908 125.703 171.753V171.753ZM148.588 145.456L149.805 147.049C150.243 147.623 150.561 148.187 150.758 148.743 150.961 149.295 151.074 149.834 151.099 150.362 151.12 150.885 151.067 151.388 150.94 151.871 150.813 152.355 150.636 152.806 150.409 153.223 150.19 153.642 149.932 154.02 149.635 154.357 149.337 154.694 149.037 154.978 148.734 155.209V155.209L157.382 155.73 153.518 158.682 144.886 158.148 143.086 159.523 141.181 157.03 146.829 152.715C147.122 152.45 147.356 152.166 147.529 151.865 147.709 151.56 147.827 151.247 147.884 150.926 147.932 150.603 147.909 150.276 147.815 149.944 147.731 149.613 147.563 149.283 147.311 148.954V148.954L146.113 147.384C146.003 147.241 145.901 147.146 145.807 147.1 145.717 147.06 145.632 147.041 145.55 147.045 145.469 147.048 145.397 147.069 145.334 147.109 145.266 147.152 145.206 147.194 145.153 147.235V147.235L136.924 153.521 145.528 164.785 143.034 166.69 133.487 154.19C133.353 154.015 133.259 153.826 133.205 153.623 133.151 153.421 133.137 153.221 133.164 153.024 133.186 152.822 133.25 152.631 133.355 152.449 133.461 152.268 133.604 152.108 133.784 151.97V151.97L143.248 144.741C143.806 144.315 144.356 144.055 144.897 143.961 145.434 143.87 145.937 143.885 146.408 144.005 146.878 144.126 147.3 144.32 147.674 144.59 148.052 144.864 148.356 145.153 148.588 145.456ZM167.313 134.646V134.646C167.804 135.016 168.201 135.416 168.505 135.846 168.807 136.267 169.029 136.694 169.171 137.127 169.323 137.559 169.4 137.994 169.405 138.433 169.404 138.867 169.362 139.283 169.279 139.681 169.187 140.081 169.059 140.457 168.893 140.809 168.728 141.162 168.543 141.474 168.338 141.746V141.746L161.048 151.416 158.542 149.527 165.832 139.857C166.198 139.372 166.341 138.889 166.259 138.409 166.173 137.934 165.893 137.518 165.418 137.16V137.16C165.183 136.983 164.944 136.856 164.699 136.781 164.455 136.705 164.213 136.682 163.974 136.711 163.733 136.73 163.503 136.808 163.283 136.944 163.062 137.07 162.864 137.251 162.686 137.486V137.486L158.341 143.249C158.036 143.654 157.634 144.038 157.136 144.399 156.637 144.76 156.077 145.019 155.455 145.178 154.834 145.337 154.16 145.353 153.436 145.225 152.712 145.098 151.974 144.751 151.222 144.183V144.183C150.474 143.62 149.943 143.01 149.626 142.353 149.31 141.696 149.14 141.044 149.116 140.399 149.092 139.753 149.185 139.141 149.395 138.563 149.605 137.985 149.863 137.493 150.169 137.087V137.087L156.602 128.554 159.107 130.443 152.674 138.976C152.316 139.451 152.181 139.931 152.268 140.415 152.355 140.899 152.636 141.32 153.11 141.678V141.678C153.596 142.044 154.078 142.198 154.557 142.141 155.041 142.087 155.462 141.823 155.82 141.348V141.348L160.165 135.585 160.183 135.561C160.39 135.298 160.64 135.038 160.933 134.782 161.228 134.536 161.56 134.318 161.929 134.127 162.293 133.933 162.684 133.78 163.103 133.669 163.527 133.562 163.967 133.517 164.423 133.534 164.884 133.555 165.355 133.651 165.837 133.822 166.325 133.997 166.817 134.272 167.313 134.646ZM170.145 115.031L173.061 116.243 169.255 125.398 166.339 124.186ZM177.241 116.451L180.138 117.655 175.79 128.115C175.623 128.516 175.37 128.925 175.03 129.341 174.691 129.757 174.276 130.102 173.786 130.376 173.292 130.641 172.732 130.803 172.107 130.862 171.476 130.918 170.784 130.789 170.031 130.476V130.476L159.581 126.131C159.377 126.046 159.201 125.93 159.053 125.781 158.905 125.633 158.793 125.467 158.717 125.283 158.635 125.097 158.594 124.899 158.595 124.69 158.595 124.48 158.638 124.273 158.722 124.07V124.07L164.153 111.009 167.05 112.213 162.22 123.83 171.236 127.579C171.618 127.738 171.949 127.76 172.229 127.644 172.517 127.525 172.741 127.275 172.9 126.892V126.892Z" fill="#f6673d" data-fill-palette-color="primary"></path><path d="M16.555 47.164L31.574 53.207 30.376 56.183 20.677 52.28 27.786 61.225C27.963 61.447 28.067 61.698 28.099 61.977 28.124 62.254 28.083 62.526 27.976 62.792V62.792C27.874 63.047 27.719 63.262 27.511 63.437 27.298 63.611 27.05 63.716 26.768 63.754V63.754L15.437 65.3 25.137 69.203 23.947 72.161 8.928 66.117C8.587 65.98 8.324 65.755 8.14 65.443 7.959 65.14 7.889 64.805 7.928 64.439V64.439C7.953 64.269 8.004 64.106 8.082 63.95 8.15 63.798 8.245 63.659 8.367 63.536 8.483 63.409 8.615 63.304 8.764 63.22 8.917 63.145 9.082 63.092 9.26 63.063V63.063L23.642 61.049 14.668 49.624C14.452 49.336 14.344 49.015 14.342 48.661 14.343 48.301 14.454 47.972 14.675 47.672V47.672C14.896 47.393 15.177 47.204 15.52 47.104 15.869 47.006 16.214 47.026 16.555 47.164ZM31.085 26.15L43.453 36.221C43.629 36.364 43.767 36.533 43.868 36.727 43.967 36.911 44.025 37.105 44.041 37.308 44.062 37.514 44.043 37.718 43.983 37.919 43.923 38.12 43.823 38.306 43.684 38.477V38.477L39.152 44.043C38.725 44.566 38.236 45.051 37.683 45.497 37.13 45.943 36.53 46.321 35.882 46.629 35.234 46.938 34.55 47.165 33.828 47.31 33.097 47.456 32.346 47.49 31.573 47.413 30.8 47.335 30.014 47.126 29.214 46.785 28.41 46.449 27.609 45.956 26.811 45.306V45.306L20.002 39.761 22.008 37.297 28.818 42.842C29.512 43.408 30.181 43.788 30.823 43.984 31.461 44.184 32.061 44.268 32.623 44.234 33.189 44.195 33.706 44.073 34.174 43.868 34.648 43.668 35.059 43.443 35.409 43.193 35.759 42.944 36.043 42.706 36.262 42.479 36.487 42.257 36.628 42.109 36.687 42.036V42.036L40.219 37.699 29.072 28.622ZM58.532 21.271V21.271C58.891 21.787 59.147 22.296 59.302 22.799 59.457 23.302 59.536 23.784 59.54 24.246 59.548 24.713 59.482 25.157 59.344 25.579 59.212 25.997 59.042 26.384 58.834 26.741 58.626 27.097 58.386 27.419 58.114 27.706 57.841 27.994 57.563 28.236 57.277 28.435V28.435L47.208 35.446 45.392 32.838 55.462 25.827C55.966 25.476 56.253 25.057 56.321 24.569 56.394 24.079 56.259 23.586 55.915 23.093V23.093C55.747 22.851 55.557 22.654 55.344 22.501 55.13 22.357 54.903 22.258 54.663 22.206 54.423 22.153 54.175 22.155 53.92 22.21 53.669 22.27 53.423 22.385 53.182 22.553V22.553L47.176 26.734C46.754 27.028 46.245 27.268 45.65 27.455 45.059 27.646 44.438 27.72 43.789 27.676 43.139 27.631 42.485 27.435 41.827 27.087 41.17 26.739 40.568 26.172 40.022 25.388V25.388C39.476 24.604 39.155 23.845 39.061 23.113 38.966 22.381 39.009 21.7 39.189 21.069 39.369 20.439 39.652 19.88 40.037 19.392 40.418 18.899 40.82 18.505 41.242 18.211V18.211L50.136 12.019 51.957 14.635 43.064 20.827C42.57 21.171 42.288 21.591 42.219 22.087 42.154 22.58 42.294 23.073 42.638 23.567V23.567C42.989 24.071 43.403 24.373 43.88 24.473 44.362 24.569 44.85 24.445 45.343 24.101V24.101L51.349 19.92 51.374 19.903C51.657 19.714 51.98 19.546 52.342 19.399 52.71 19.249 53.102 19.139 53.518 19.07 53.924 18.999 54.348 18.976 54.79 19.002 55.226 19.033 55.662 19.132 56.097 19.301 56.535 19.461 56.957 19.7 57.366 20.018 57.784 20.338 58.173 20.756 58.532 21.271ZM59.993 7.006L67.391 22.924 64.509 24.263 57.112 8.345ZM85.887 14.664L86.671 17.744 75.547 20.574C75.262 20.646 74.946 20.692 74.599 20.712 74.251 20.724 73.9 20.7 73.546 20.638 73.193 20.576 72.839 20.473 72.485 20.329 72.136 20.176 71.807 19.967 71.498 19.701 71.197 19.44 70.925 19.116 70.681 18.729 70.437 18.336 70.247 17.874 70.112 17.343V17.343L67.988 8.998C67.916 8.713 67.873 8.396 67.861 8.048 67.843 7.708 67.864 7.357 67.924 6.997 67.986 6.644 68.093 6.292 68.246 5.943 68.405 5.592 68.614 5.263 68.874 4.956 69.14 4.647 69.463 4.372 69.843 4.13 70.229 3.887 70.688 3.698 71.219 3.563V3.563L82.343 0.733 83.129 3.822 72.005 6.652C71.597 6.756 71.317 6.941 71.164 7.208 71.004 7.476 70.977 7.817 71.083 8.232V8.232L73.201 16.557C73.302 16.952 73.487 17.233 73.756 17.399 74.033 17.563 74.368 17.595 74.763 17.494V17.494ZM114.78 2.264L118.293 2.768 107.659 18.346C107.497 18.586 107.275 18.767 106.994 18.889 106.721 19.005 106.429 19.04 106.118 18.996V18.996C105.82 18.953 105.557 18.837 105.327 18.649 105.092 18.453 104.927 18.217 104.831 17.94V17.94L99.023 0 102.546 0.506 106.851 13.895ZM134.856 16.612L133.663 19.589 124.33 15.848 125.524 12.87ZM133.499 23.822L132.317 26.772 121.663 22.501C121.254 22.336 120.836 22.086 120.409 21.749 119.982 21.413 119.63 20.998 119.352 20.505 119.071 20.004 118.899 19.437 118.834 18.807 118.767 18.168 118.887 17.464 119.195 16.694V16.694L123.467 6.041C123.549 5.836 123.663 5.658 123.81 5.508 123.956 5.358 124.125 5.242 124.316 5.161 124.501 5.076 124.698 5.033 124.908 5.031 125.127 5.025 125.341 5.064 125.552 5.149V5.149L138.849 10.479 137.662 13.438 125.827 8.693 122.145 17.877C121.988 18.268 121.971 18.607 122.094 18.893 122.217 19.18 122.476 19.403 122.873 19.562V19.562ZM156.98 28.398L155.748 30.017C155.311 30.592 154.846 31.053 154.355 31.401 153.867 31.744 153.367 31.998 152.856 32.162 152.348 32.322 151.844 32.405 151.344 32.411 150.835 32.418 150.344 32.368 149.872 32.26 149.404 32.157 148.969 32.006 148.565 31.808 148.157 31.606 147.798 31.388 147.489 31.153V31.153L149.292 39.743 145.383 36.768 143.58 28.178 141.761 26.794 143.686 24.265 149.414 28.624C149.748 28.836 150.088 28.99 150.435 29.086 150.777 29.178 151.112 29.206 151.441 29.171 151.77 29.136 152.087 29.029 152.391 28.849 152.687 28.671 152.96 28.417 153.211 28.087V28.087L154.425 26.491C154.534 26.348 154.601 26.227 154.626 26.128 154.645 26.025 154.64 25.933 154.61 25.851 154.585 25.773 154.545 25.71 154.491 25.66 154.431 25.606 154.375 25.559 154.321 25.518V25.518L145.969 19.163 137.27 30.595 134.733 28.664 144.391 15.972C144.524 15.796 144.684 15.658 144.871 15.556 145.052 15.45 145.243 15.381 145.444 15.349 145.645 15.317 145.849 15.33 146.057 15.388 146.264 15.436 146.458 15.529 146.639 15.666V15.666L156.252 22.981C156.815 23.41 157.215 23.878 157.451 24.385 157.685 24.883 157.808 25.379 157.818 25.873 157.822 26.364 157.745 26.83 157.585 27.271 157.416 27.714 157.215 28.089 156.98 28.398ZM164.891 52.121V52.121C164.39 52.5 163.891 52.777 163.395 52.952 162.898 53.126 162.42 53.224 161.959 53.246 161.492 53.272 161.046 53.225 160.619 53.103 160.196 52.988 159.802 52.833 159.438 52.639 159.073 52.446 158.742 52.218 158.444 51.958 158.147 51.697 157.893 51.428 157.683 51.151V51.151L150.28 41.366 152.814 39.448 160.217 49.234C160.588 49.724 161.019 49.993 161.508 50.042 162.001 50.096 162.488 49.942 162.968 49.579V49.579C163.202 49.402 163.392 49.204 163.537 48.985 163.672 48.765 163.761 48.534 163.804 48.292 163.847 48.05 163.836 47.803 163.771 47.551 163.701 47.302 163.577 47.061 163.399 46.826V46.826L158.984 40.99C158.674 40.58 158.414 40.081 158.204 39.494 157.989 38.911 157.891 38.294 157.909 37.643 157.928 36.992 158.098 36.331 158.42 35.66 158.742 34.989 159.285 34.365 160.047 33.788V33.788C160.809 33.212 161.554 32.862 162.282 32.738 163.01 32.615 163.692 32.631 164.329 32.786 164.966 32.941 165.536 33.201 166.038 33.567 166.547 33.928 166.956 34.314 167.266 34.724V34.724L173.804 43.366 171.262 45.29 164.724 36.648C164.361 36.168 163.93 35.903 163.432 35.853 162.937 35.809 162.45 35.968 161.97 36.331V36.331C161.48 36.701 161.194 37.127 161.113 37.607 161.036 38.093 161.179 38.575 161.542 39.055V39.055L165.958 44.891 165.976 44.915C166.176 45.191 166.356 45.507 166.517 45.863 166.682 46.225 166.807 46.612 166.893 47.024 166.98 47.428 167.019 47.85 167.01 48.293 166.997 48.73 166.915 49.169 166.763 49.611 166.621 50.054 166.399 50.486 166.097 50.907 165.794 51.338 165.392 51.742 164.891 52.121ZM176.911 67.094L173.951 68.331 170.074 59.054 173.034 57.817ZM170.819 71.183L167.887 72.408 163.461 61.818C163.291 61.411 163.176 60.937 163.117 60.397 163.058 59.857 163.106 59.315 163.263 58.771 163.423 58.219 163.706 57.699 164.11 57.211 164.519 56.715 165.105 56.307 165.869 55.987V55.987L176.46 51.561C176.663 51.476 176.87 51.433 177.08 51.432 177.289 51.431 177.49 51.47 177.683 51.549 177.873 51.622 178.042 51.732 178.191 51.88 178.348 52.032 178.471 52.212 178.558 52.422V52.422L184.083 65.639 181.141 66.868 176.224 55.104 167.095 58.919C166.707 59.082 166.453 59.307 166.335 59.595 166.216 59.884 166.239 60.226 166.404 60.62V60.62Z" fill="#f6673d" data-fill-palette-color="primary"></path><path d="M12.759 92.517C12.759 91.39 13.672 90.476 14.799 90.476 15.926 90.476 16.839 91.39 16.839 92.517 16.839 93.644 15.926 94.557 14.799 94.557 13.672 94.557 12.759 93.644 12.759 92.517ZM175.161 92.517C175.161 91.39 176.074 90.476 177.201 90.476 178.328 90.476 179.241 91.39 179.241 92.517 179.241 93.644 178.328 94.557 177.201 94.557 176.074 94.557 175.161 93.644 175.161 92.517Z" fill="#f6673d" data-fill-palette-color="primary"></path></svg></g></svg></g></svg></g><g></g></svg></g></svg></g></svg></g><defs></defs></svg><rect width="320" height="360" fill="none" stroke="none" visibility="hidden"></rect></g></svg></g></svg>